<?xml version="1.0" encoding="UTF-8"?><svg id="uuid-fb756664-8b49-4a93-8f4c-e212f7ef5913" xmlns="http://www.w3.org/2000/svg" viewBox="0 0 1941.87 1942.32"><path d="M945.33,369.79c531.72-19.6,833.81,611.83,469.35,1007.91-277.56,301.64-766.09,241.4-969.04-111.88-221.93-386.33,62.4-879.91,499.69-896.03Z" style="fill:#feffff; stroke-width:0px;"/><path d="M924.47,422.89c498.7-32.57,774.87,532.73,473.14,897.92-248.85,301.19-722.09,253.37-910.25-87.23-195.36-353.64,66.05-786.46,437.11-810.69Z" style="fill:#0f3e5b; stroke-width:0px;"/><path d="M1007.91,436.16c12.29-.66,19.63.43,13.27,5.69-120.69,21.71-219.41,117.31-281.61,219.03l2.84,2.84c102.75-173.04,354.44-178.09,455.13,0,33.44-38.57,68.83-76.23,111.88-104.3q2.37,3.32,4.74,6.64c-37.76,30.39-73.6,62.77-104.3,100.51,36.73,12.2,241.05,84.15,255.06,95.77,6.63,5.49,7.71,11.73-3.79,9.48-13.91-2.71-201.64-85.57-254.11-91.03,42.67,90.75,14.98,195.18-29.39,279.71,97.61,66.45,214.42,163.39,261.7,273.08l-4.74,4.74c-60.22-109.16-155.64-196.74-259.8-265.49-63.74,118.57-130.84,235.21-202.91,348.93-40.39-65.58-83.43-129.79-122.31-196.27-12.08-20.65-71.65-140.44-77.75-146.02-6.66-6.09-132.12-20.48-152.66-21.81-18.48,102.2-7.79,209.43,26.55,307.21,177.47,13.1,418.56,79,564.17,183-3.39,12.65-48.77-21.68-74.91-35.08-136.49-69.98-330.39-126.29-483.57-134.64,28.91,81.82,89.59,146.99,156.45,200.07-29.9-5.16-81.84-58.15-102.4-83.44-51.67-63.54-62.86-115.87-69.22-118.52-15.01-6.27-90.79,19.92-93.87,12.33-5.25-12.94,81.54-22.98,91.03-26.55-35.17-97.06-42.15-203.64-26.55-305.31q-82.97-8.06-165.93-16.12c-4.9-2.14-3.65-12.23,5.69-13.27,11.79-1.32,130.84,17.13,164.03,14.22,13.15-99.37,60-189.54,109.99-274.97-24.41-14.74-133.01-66.64-112.83-80.6,11.75,12.55,114.33,72.34,121.37,70.17,46.34-84.39,181-214.75,278.76-219.98Z" style="fill:#feffff; stroke-width:0px;"/><path d="M952.92,690.27c158.06-20.55,158.97,221.32,0,201.01-113.74-14.53-107.65-187.02,0-201.01Z" style="fill:#0f3e5b; stroke-width:0px;"/><path d="M732.94,673.21l4.74,4.74c-48.12,86.56-18.14,200.76,24.65,284.45q-70.64-9.01-141.28-18.02c15.89-97.24,55.97-190.34,111.88-271.18Z" style="fill:#0f3e5b; stroke-width:0px;"/></svg>